<svg width="1320" height="888" viewBox="0 0 1320 888" fill="none" xmlns="http://www.w3.org/2000/svg">
<mask id="mask0_1_17" style="mask-type:alpha" maskUnits="userSpaceOnUse" x="0" y="0" width="1320" height="888">
<path d="M1319.2 0.54866H0.800911V887.097H1319.2V0.54866Z" fill="url(#paint0_radial_1_17)"/>
</mask>
<g mask="url(#mask0_1_17)">
<g opacity="0.3">
<mask id="mask1_1_17" style="mask-type:alpha" maskUnits="userSpaceOnUse" x="405" y="287" width="485" height="366">
<g opacity="0.3">
<path d="M647.44 652.24C780.921 652.24 889.128 570.489 889.128 469.644C889.128 368.799 780.921 287.048 647.44 287.048C513.96 287.048 405.752 368.799 405.752 469.644C405.752 570.489 513.96 652.24 647.44 652.24Z" fill="white"/>
</g>
</mask>
<g mask="url(#mask1_1_17)">
<path d="M780.298 582.46C780.298 649.607 717.465 704.166 639.799 704.166C562.133 704.166 499.301 649.607 499.301 582.46C499.301 515.313 562.133 460.752 639.799 460.752C717.465 460.752 780.298 515.313 780.298 582.46Z" stroke="white" stroke-width="0.8"/>
<path d="M754.404 604.9C754.404 659.654 703.166 704.166 639.799 704.166C576.432 704.166 525.192 659.654 525.192 604.9C525.192 550.146 576.432 505.634 639.799 505.634C703.166 505.634 754.404 550.146 754.404 604.9Z" stroke="white" stroke-width="0.8"/>
<path d="M728.87 627.032C728.87 669.563 689.062 704.166 639.798 704.166C590.533 704.166 550.726 669.563 550.726 627.032C550.726 584.503 590.533 549.899 639.798 549.899C689.062 549.899 728.87 584.503 728.87 627.032Z" stroke="white" stroke-width="0.8"/>
<path d="M703.335 649.165C703.335 679.472 674.96 704.166 639.798 704.166C604.637 704.166 576.262 679.472 576.262 649.165C576.262 618.859 604.637 594.165 639.798 594.165C674.96 594.165 703.335 618.859 703.335 649.165Z" stroke="white" stroke-width="0.8"/>
<path d="M679.219 670.069C679.219 688.831 661.641 704.167 639.798 704.167C617.956 704.167 600.378 688.831 600.378 670.069C600.378 651.307 617.956 635.972 639.798 635.972C661.641 635.972 679.219 651.307 679.219 670.069Z" stroke="white" stroke-width="0.8"/>
<path d="M805.974 559.712C805.974 639.425 732.203 704.166 641.055 704.166C549.905 704.166 476.137 639.425 476.137 559.712C476.137 479.998 549.905 415.258 641.055 415.258C732.203 415.258 805.974 479.998 805.974 559.712Z" stroke="white" stroke-width="0.8"/>
<path d="M830.528 538.194C830.528 629.791 745.764 704.166 641.054 704.166C536.344 704.166 451.583 629.791 451.583 538.194C451.583 446.596 536.344 372.221 641.054 372.221C745.764 372.221 830.528 446.596 830.528 538.194Z" stroke="white" stroke-width="0.8"/>
<path d="M855.782 516.061C855.782 619.882 759.711 704.166 641.054 704.166C522.395 704.166 426.326 619.882 426.326 516.061C426.326 412.24 522.395 327.956 641.054 327.956C759.711 327.956 855.782 412.24 855.782 516.061Z" stroke="white" stroke-width="0.8"/>
</g>
<path d="M888.828 469.643C888.828 519.925 861.85 565.483 818.168 598.485C774.487 631.486 714.127 651.908 647.44 651.908C580.753 651.908 520.392 631.486 476.712 598.485C433.03 565.483 406.053 519.925 406.053 469.643C406.053 419.362 433.03 373.804 476.712 340.802C520.392 307.801 580.753 287.378 647.44 287.378C714.127 287.378 774.487 307.801 818.168 340.802C861.85 373.804 888.828 419.362 888.828 469.643Z" stroke="white" stroke-width="0.8"/>
<path d="M932.923 451.199C932.923 507.415 901.112 558.353 849.603 595.252C798.093 632.15 726.914 654.983 648.278 654.983C569.641 654.983 498.464 632.15 446.955 595.252C395.442 558.353 363.633 507.415 363.633 451.199C363.633 394.984 395.442 344.046 446.955 307.147C498.464 270.249 569.641 247.416 648.278 247.416C726.914 247.416 798.093 270.249 849.603 307.147C901.112 344.046 932.923 394.984 932.923 451.199Z" stroke="white" stroke-width="0.8"/>
<path d="M969.762 435.829C969.762 497.983 933.834 554.301 875.655 595.096C817.476 635.888 737.087 661.13 648.277 661.13C559.467 661.13 479.078 635.888 420.903 595.096C362.722 554.301 326.794 497.983 326.794 435.829C326.794 373.675 362.722 317.358 420.903 276.563C479.078 235.77 559.467 210.528 648.277 210.528C737.087 210.528 817.476 235.77 875.655 276.563C933.834 317.358 969.762 373.675 969.762 435.829Z" stroke="white" stroke-width="0.8"/>
<path d="M1012.74 425.993C1012.74 495.105 972.193 557.724 906.532 603.082C840.886 648.437 750.168 676.5 649.951 676.5C549.735 676.5 459.02 648.437 393.368 603.082C327.713 557.724 287.163 495.105 287.163 425.993C287.163 356.88 327.713 294.261 393.368 248.903C459.02 203.548 549.735 175.484 649.951 175.484C750.168 175.484 840.886 203.548 906.532 248.903C972.193 294.261 1012.74 356.88 1012.74 425.993Z" stroke="white" stroke-width="0.8"/>
<path d="M1053.49 419.844C1053.49 496.935 1008.16 566.779 934.774 617.366C861.398 667.95 760.005 699.248 647.999 699.248C535.99 699.248 434.601 667.95 361.222 617.366C287.84 566.779 242.511 496.935 242.511 419.844C242.511 342.753 287.84 272.91 361.222 222.322C434.601 171.739 535.99 140.441 647.999 140.441C760.005 140.441 861.398 171.739 934.774 222.322C1008.16 272.91 1053.49 342.753 1053.49 419.844Z" stroke="white" stroke-width="0.8"/>
<path d="M1102.05 416.463C1102.05 501.787 1051.25 579.084 969.031 635.068C886.818 691.049 773.215 725.685 647.719 725.685C522.224 725.685 408.623 691.049 326.407 635.068C244.185 579.084 193.392 501.787 193.392 416.463C193.392 331.14 244.185 253.842 326.407 197.858C408.623 141.877 522.224 107.241 647.719 107.241C773.215 107.241 886.818 141.877 969.031 197.858C1051.25 253.842 1102.05 331.14 1102.05 416.463Z" stroke="white" stroke-width="0.8"/>
<path d="M1151.72 423.226C1151.72 518.567 1095.49 604.933 1004.49 667.481C913.48 730.025 787.743 768.72 648.835 768.72C509.93 768.72 384.189 730.025 293.185 667.481C202.176 604.933 145.946 518.567 145.946 423.226C145.946 327.884 202.176 241.518 293.185 178.971C384.189 116.426 509.93 77.7307 648.835 77.7307C787.743 77.7307 913.48 116.426 1004.49 178.971C1095.49 241.518 1151.72 327.884 1151.72 423.226Z" stroke="white" stroke-width="0.8"/>
<path d="M1212.1 432.141C1212.1 538.941 1149.12 635.683 1047.18 705.74C945.253 775.794 804.416 819.134 648.836 819.134C493.257 819.134 352.42 775.794 250.489 705.74C148.553 635.683 85.5642 538.941 85.5642 432.141C85.5642 325.339 148.553 228.598 250.489 158.541C352.42 88.4861 493.257 45.1461 648.836 45.1461C804.416 45.1461 945.253 88.4861 1047.18 158.541C1149.12 228.598 1212.1 325.339 1212.1 432.141Z" stroke="white" stroke-width="0.8"/>
<path d="M1272.94 449.97C1272.94 570.525 1203.14 679.716 1090.19 758.784C977.251 837.848 821.21 886.766 648.836 886.766C476.46 886.766 320.417 837.848 207.478 758.784C94.5345 679.716 24.7337 570.525 24.7337 449.97C24.7337 329.414 94.5345 220.223 207.478 141.155C320.417 62.0902 476.46 13.1765 648.836 13.1765C821.21 13.1765 977.251 62.0902 1090.19 141.155C1203.14 220.223 1272.94 329.414 1272.94 449.97Z" stroke="white" stroke-width="0.8"/>
<path d="M551.087 636.947C551.087 636.947 490.77 612.124 315.092 673.604C139.413 735.085 9.73228 860.508 9.73228 860.508" stroke="white" stroke-width="0.8"/>
<path d="M591.972 651.202C591.972 651.202 527.713 642.864 418.869 710.492C310.026 778.121 236.348 862.348 236.348 862.348" stroke="white" stroke-width="0.8"/>
<path d="M432.266 859.272C432.266 859.272 482.501 778.736 548.923 717.255C615.346 655.775 648.801 655.122 648.801 655.122" stroke="white" stroke-width="0.8"/>
<path d="M705.106 651.087C705.106 651.087 675.069 676.063 646.603 744.922C618.136 813.779 607.531 861.735 607.531 861.735" stroke="white" stroke-width="0.8"/>
<path d="M752.307 641.174C754.54 644.658 761.924 671.145 763.264 732.625C764.604 794.106 767.54 846.363 768.842 864.811" stroke="white" stroke-width="0.8"/>
<path d="M784.348 630.414C798.424 623.325 833.479 625.403 866.524 695.736C899.562 766.071 928.662 837.757 939.08 864.811" stroke="white" stroke-width="0.8"/>
<path d="M792.056 627.283C815.684 603.305 886.283 580.277 976.483 684.055C1066.68 787.835 1113.04 845.75 1124.95 861.735" stroke="white" stroke-width="0.8"/>
<path d="M792.131 627.264C822.828 590.99 930.491 537.364 1085.89 651.471C1241.28 765.579 1306.17 828.125 1319.2 845.136" stroke="white" stroke-width="0.8"/>
<path d="M1310.83 674.834C1189.89 591.63 903.762 477.92 781.857 631.375" stroke="white" stroke-width="0.8"/>
<path d="M1307.48 567.858C1185.8 506.583 909.197 432.597 771.213 635.236" stroke="white" stroke-width="0.8"/>
<path d="M1305.24 481.171C1175 442.029 885.463 416.24 762.669 638.061" stroke="white" stroke-width="0.8"/>
<path d="M1307.48 410.469C1170.54 387.516 868.572 399.31 749.795 641.788" stroke="white" stroke-width="0.8"/>
<path d="M1308.03 347.144C1165.7 334.233 854.059 373.223 740.637 644.228" stroke="white" stroke-width="0.8"/>
<path d="M729.56 646.726C771.981 530.528 925.689 295.255 1307.48 286.893" stroke="white" stroke-width="0.8"/>
<path d="M1299.8 235.569C1148.72 238.439 820.389 324.078 711.885 654.596" stroke="white" stroke-width="0.8"/>
<path d="M709.346 650.453C744.324 502.49 913.073 201.19 1309.15 175.614" stroke="white" stroke-width="0.8"/>
<path d="M1188.02 141.185C1057.04 169.261 776.444 308.703 698.303 652.009" stroke="white" stroke-width="0.8"/>
<path d="M689.617 652.97C717.805 454.542 869.031 210.074 1107.93 96.458" stroke="white" stroke-width="0.8"/>
<path d="M1014.16 69.4068C935.271 123.1 718.223 370.176 678.035 653.969" stroke="white" stroke-width="0.8"/>
<path d="M951.643 47.2738C886.893 106.91 694.271 385.585 668.371 654.622" stroke="white" stroke-width="0.8"/>
<path d="M892.478 25.1409C843.355 78.8337 682.577 371.175 658.464 654.968" stroke="white" stroke-width="0.8"/>
<path d="M0.800911 706.188C103.504 651.881 346.466 558.818 517.936 632.595" stroke="white" stroke-width="0.8"/>
<path d="M831.078 17.7632C795.353 68.7918 665.357 362.022 648.836 655.16" stroke="white" stroke-width="0.8"/>
<path d="M779.726 7.92643C749.771 63.4636 643.959 374.656 639.94 655.007" stroke="white" stroke-width="0.8"/>
<path d="M731.724 -1.91033C707.536 56.496 619.664 382.247 630.381 654.728" stroke="white" stroke-width="0.8"/>
<path d="M668.092 -1.91033C651.719 56.496 602.378 383.84 622.026 654.353" stroke="white" stroke-width="0.8"/>
<path d="M613.112 -4.36973C604.182 82.1126 582.651 449.981 613.016 653.604" stroke="white" stroke-width="0.8"/>
<path d="M556.458 0.548676C555.9 76.5793 564.56 425.817 602.515 652.557" stroke="white" stroke-width="0.8"/>
<path d="M496.176 12.8448C502.316 81.7028 543.585 406.119 594.938 651.548" stroke="white" stroke-width="0.8"/>
<path d="M441.634 20.9962C461.542 118.545 537.837 477.943 585.169 650.088" stroke="white" stroke-width="0.8"/>
<path d="M381.415 35.0906C415.463 126.696 525.443 459.995 574.115 647.387" stroke="white" stroke-width="0.8"/>
<path d="M327.051 63.8734C360.913 127.608 483.227 396.405 569.854 647.244" stroke="white" stroke-width="0.8"/>
<path d="M272.35 92.7693C315.515 151.79 455.443 382.349 563.505 645.977" stroke="white" stroke-width="0.8"/>
<path d="M195.323 119.821C251.698 164.086 424.402 348.911 555.237 644.017" stroke="white" stroke-width="0.8"/>
<path d="M90.1084 139.955C224.069 163.932 447.686 436.521 545.366 635.102" stroke="white" stroke-width="0.8"/>
<path d="M1.35958 181.147C152.624 198.976 346.657 327.239 537.551 632.182" stroke="white" stroke-width="0.8"/>
<path d="M3.03412 240.168C106.295 249.39 353.635 376.27 529.458 628.954" stroke="white" stroke-width="0.8"/>
<path d="M4.70866 304.107C211.789 331.159 470.318 539.51 529.484 636.649" stroke="white" stroke-width="0.8"/>
<path d="M1.35958 367.432C133.646 379.113 387.081 471.526 526.623 635.678" stroke="white" stroke-width="0.8"/>
<path d="M0.800911 438.134C144.809 433.83 389.058 495.411 523.466 634.602" stroke="white" stroke-width="0.8"/>
<path d="M0.800911 509.452C104.992 497.156 353.81 503.786 520.814 633.632" stroke="white" stroke-width="0.8"/>
<path d="M0.800911 594.909C107.783 565.399 359.092 529.643 520.291 633.421" stroke="white" stroke-width="0.8"/>
</g>
<path d="M878.786 436.794C908.188 409.795 959.306 378.86 959.306 378.86" stroke="url(#paint1_linear_1_17)" stroke-width="0.8" stroke-linecap="round"/>
<path d="M427.144 502.811C399.293 473.171 363.727 440.732 363.727 440.732" stroke="url(#paint2_linear_1_17)" stroke-width="0.8" stroke-linecap="round"/>
<path d="M442.623 384.923C424.087 348.649 395.76 296.411 395.76 296.411" stroke="url(#paint3_linear_1_17)" stroke-width="0.8" stroke-linecap="round"/>
<path d="M723.533 526.545C733.507 487.991 772.229 418.442 772.229 418.442" stroke="url(#paint4_linear_1_17)" stroke-width="0.8" stroke-linecap="round"/>
<path d="M617.868 481.047C618.339 454.153 618.997 434.669 618.997 434.669" stroke="url(#paint5_linear_1_17)" stroke-width="0.8" stroke-linecap="round"/>
<path d="M933.57 269.883C959.329 249.597 965.328 245.71 965.328 245.71" stroke="url(#paint6_linear_1_17)" stroke-width="0.8" stroke-linecap="round"/>
<path d="M1035.63 502.864C1065.65 502.242 1083.03 504.411 1083.03 504.411" stroke="url(#paint7_linear_1_17)" stroke-width="0.8" stroke-linecap="round"/>
<path d="M243.288 436.483C216.284 424.306 193.514 415.962 193.514 415.962" stroke="url(#paint8_linear_1_17)" stroke-width="0.8" stroke-linecap="round"/>
</g>
<defs>
<radialGradient id="paint0_radial_1_17" cx="0" cy="0" r="1" gradientUnits="userSpaceOnUse" gradientTransform="translate(659.999 443.822) rotate(90) scale(443.273 659.198)">
<stop stop-color="#D9D9D9"/>
<stop offset="0.796875" stop-color="#D9D9D9" stop-opacity="0"/>
</radialGradient>
<linearGradient id="paint1_linear_1_17" x1="919.046" y1="378.86" x2="919.046" y2="436.794" gradientUnits="userSpaceOnUse">
<stop stop-color="white"/>
<stop offset="1" stop-color="white" stop-opacity="0"/>
</linearGradient>
<linearGradient id="paint2_linear_1_17" x1="395.435" y1="440.732" x2="395.435" y2="502.811" gradientUnits="userSpaceOnUse">
<stop stop-color="white"/>
<stop offset="1" stop-color="white" stop-opacity="0"/>
</linearGradient>
<linearGradient id="paint3_linear_1_17" x1="419.191" y1="296.411" x2="419.191" y2="384.923" gradientUnits="userSpaceOnUse">
<stop stop-color="#BEFC65"/>
<stop offset="1" stop-color="#BEFC65" stop-opacity="0.1"/>
</linearGradient>
<linearGradient id="paint4_linear_1_17" x1="747.881" y1="418.442" x2="747.881" y2="526.545" gradientUnits="userSpaceOnUse">
<stop stop-color="white"/>
<stop offset="1" stop-color="white" stop-opacity="0"/>
</linearGradient>
<linearGradient id="paint5_linear_1_17" x1="618.433" y1="434.669" x2="618.433" y2="481.047" gradientUnits="userSpaceOnUse">
<stop stop-color="white"/>
<stop offset="1" stop-color="white" stop-opacity="0"/>
</linearGradient>
<linearGradient id="paint6_linear_1_17" x1="949.449" y1="245.71" x2="949.449" y2="269.883" gradientUnits="userSpaceOnUse">
<stop stop-color="#BEFC65"/>
<stop offset="1" stop-color="#BEFC65" stop-opacity="0"/>
</linearGradient>
<linearGradient id="paint7_linear_1_17" x1="1035.63" y1="503.581" x2="1083.03" y2="503.581" gradientUnits="userSpaceOnUse">
<stop stop-color="#BEFC65"/>
<stop offset="1" stop-color="#BEFC65" stop-opacity="0"/>
</linearGradient>
<linearGradient id="paint8_linear_1_17" x1="218.401" y1="415.962" x2="218.401" y2="436.483" gradientUnits="userSpaceOnUse">
<stop stop-color="#BEFC65"/>
<stop offset="1" stop-color="#BEFC65" stop-opacity="0"/>
</linearGradient>
</defs>
</svg>
